<svg width="24" height="24" viewBox="0 0 24 24" fill="none" xmlns="http://www.w3.org/2000/svg">
<path fill-rule="evenodd" clip-rule="evenodd" d="M12.75 7.75V4.28582C16.4315 4.63935 19.3607 7.5685 19.7142 11.25H16.1319C15.7177 11.25 15.3819 11.5858 15.3819 12C15.3819 12.4142 15.7177 12.75 16.1319 12.75H19.7142C19.3607 16.4315 16.4315 19.3607 12.75 19.7142V16.1319C12.75 15.7177 12.4142 15.3819 12 15.3819C11.5858 15.3819 11.25 15.7177 11.25 16.1319V19.7142C7.5685 19.3607 4.63935 16.4315 4.28582 12.75H7.75C8.16421 12.75 8.5 12.4142 8.5 12C8.5 11.5858 8.16421 11.25 7.75 11.25H4.28582C4.63935 7.5685 7.5685 4.63935 11.25 4.28582V7.75C11.25 8.16421 11.5858 8.5 12 8.5C12.4142 8.5 12.75 8.16421 12.75 7.75ZM2.75 12C2.75 6.89137 6.89137 2.75 12 2.75C17.1086 2.75 21.25 6.89137 21.25 12C21.25 17.1086 17.1086 21.25 12 21.25C6.89137 21.25 2.75 17.1086 2.75 12Z" fill="#1C201F"/>
</svg>
