<svg width="24" height="24" viewBox="0 0 24 24" fill="none" xmlns="http://www.w3.org/2000/svg">
<path fill-rule="evenodd" clip-rule="evenodd" d="M17 4.6501C16.2544 4.6501 15.65 5.25451 15.65 6.0001C15.65 6.74568 16.2544 7.3501 17 7.3501C17.7456 7.3501 18.35 6.74568 18.35 6.0001C18.35 5.25451 17.7456 4.6501 17 4.6501ZM14.35 6.0001C14.35 4.53654 15.5365 3.3501 17 3.3501C18.4636 3.3501 19.65 4.53654 19.65 6.0001C19.65 7.46365 18.4636 8.6501 17 8.6501C16.3259 8.6501 15.7106 8.39841 15.2429 7.98388L9.54581 11.2618C9.61365 11.4962 9.65001 11.7439 9.65001 12.0001C9.65001 12.2476 9.61609 12.4871 9.55264 12.7143L15.2622 15.9994C15.7274 15.595 16.3351 15.3501 17 15.3501C18.4636 15.3501 19.65 16.5365 19.65 18.0001C19.65 19.4637 18.4636 20.6501 17 20.6501C15.5365 20.6501 14.35 19.4637 14.35 18.0001C14.35 17.7047 14.3983 17.4206 14.4875 17.1552L8.84089 13.9063C8.36416 14.3668 7.71516 14.6501 7.00001 14.6501C5.53645 14.6501 4.35001 13.4637 4.35001 12.0001C4.35001 10.5365 5.53645 9.3501 7.00001 9.3501C7.70653 9.3501 8.34847 9.62659 8.82353 10.0773L14.4801 6.82262C14.3957 6.56369 14.35 6.28723 14.35 6.0001ZM7.00001 10.6501C6.25442 10.6501 5.65001 11.2545 5.65001 12.0001C5.65001 12.7457 6.25442 13.3501 7.00001 13.3501C7.74559 13.3501 8.35001 12.7457 8.35001 12.0001C8.35001 11.2545 7.74559 10.6501 7.00001 10.6501ZM15.65 18.0001C15.65 17.2545 16.2544 16.6501 17 16.6501C17.7456 16.6501 18.35 17.2545 18.35 18.0001C18.35 18.7457 17.7456 19.3501 17 19.3501C16.2544 19.3501 15.65 18.7457 15.65 18.0001Z" fill="#1C201F"/>
</svg>
