<svg width="34" height="34" viewBox="0 0 34 34" fill="none" xmlns="http://www.w3.org/2000/svg">
<path d="M5.07986 10.7466C4.54851 11.278 4.25 11.9986 4.25 12.7501V25.5001C4.25 26.2515 4.54851 26.9722 5.07986 27.5036C5.61122 28.0349 6.33189 28.3334 7.08333 28.3334H26.9167C27.6681 28.3334 28.3888 28.0349 28.9201 27.5036C29.4515 26.9722 29.75 26.2515 29.75 25.5001V12.7501C29.75 11.9986 29.4515 11.278 28.9201 10.7466C28.3888 10.2153 27.6681 9.91675 26.9167 9.91675H25.5992C25.1328 9.91682 24.6737 9.80178 24.2624 9.58183C23.8512 9.36189 23.5007 9.04384 23.2418 8.65592L22.0915 6.92758C21.8327 6.53965 21.4821 6.22161 21.0709 6.00166C20.6597 5.78172 20.2005 5.66668 19.7342 5.66675H14.2658C13.7995 5.66668 13.3403 5.78172 12.9291 6.00166C12.5179 6.22161 12.1673 6.53965 11.9085 6.92758L10.7582 8.65592C10.4993 9.04384 10.1488 9.36189 9.73755 9.58183C9.32633 9.80178 8.86718 9.91682 8.40083 9.91675H7.08333C6.33189 9.91675 5.61122 10.2153 5.07986 10.7466Z" stroke="#1C201F" stroke-width="1.54" stroke-linecap="round" stroke-linejoin="round"/>
<path d="M20.0052 21.422C20.8022 20.6249 21.25 19.5439 21.25 18.4167C21.25 17.2896 20.8022 16.2086 20.0052 15.4115C19.2082 14.6145 18.1272 14.1667 17 14.1667C15.8728 14.1667 14.7918 14.6145 13.9948 15.4115C13.1978 16.2086 12.75 17.2896 12.75 18.4167C12.75 19.5439 13.1978 20.6249 13.9948 21.422C14.7918 22.219 15.8728 22.6667 17 22.6667C18.1272 22.6667 19.2082 22.219 20.0052 21.422Z" stroke="#1C201F" stroke-width="1.54" stroke-linecap="round" stroke-linejoin="round"/>
</svg>
