<svg width="18" height="18" viewBox="0 0 18 18" fill="none" xmlns="http://www.w3.org/2000/svg">
<g clip-path="url(#clip0_887_38515)">
<path fill-rule="evenodd" clip-rule="evenodd" d="M12.9053 7.66125L8.718 11.8492C8.57694 11.9894 8.38619 12.068 8.18738 12.068C7.98856 12.068 7.79781 11.9894 7.65675 11.8492L5.09475 9.28725C5.02512 9.21762 4.96988 9.13495 4.9322 9.04397C4.89451 8.95299 4.87511 8.85548 4.87511 8.757C4.87511 8.55812 4.95412 8.36738 5.09475 8.22675C5.23538 8.08612 5.42612 8.00711 5.625 8.00711C5.82388 8.00711 6.01462 8.08612 6.15525 8.22675L8.187 10.2585L11.8448 6.60075C11.9144 6.53112 11.9971 6.47588 12.088 6.4382C12.179 6.40051 12.2765 6.38111 12.375 6.38111C12.4735 6.38111 12.571 6.40051 12.662 6.4382C12.7529 6.47588 12.8356 6.53112 12.9053 6.60075C12.9749 6.67038 13.0301 6.75305 13.0678 6.84403C13.1055 6.93501 13.1249 7.03252 13.1249 7.131C13.1249 7.22948 13.1055 7.32699 13.0678 7.41797C13.0301 7.50895 12.9749 7.59162 12.9053 7.66125ZM9 0.75C4.44375 0.75 0.75 4.44375 0.75 9C0.75 13.5562 4.44375 17.25 9 17.25C13.5562 17.25 17.25 13.5562 17.25 9C17.25 4.44375 13.5562 0.75 9 0.75Z" fill="#3390FF"/>
</g>
<defs>
<clipPath id="clip0_887_38515">
<rect width="18" height="18" fill="white"/>
</clipPath>
</defs>
</svg>
