<svg width="18" height="18" viewBox="0 0 18 18" fill="none" xmlns="http://www.w3.org/2000/svg">
<g clip-path="url(#clip0_919_76410)">
<path fill-rule="evenodd" clip-rule="evenodd" d="M3.14401 15.594C3.14401 15.7929 3.22303 15.9837 3.36368 16.1243C3.50434 16.265 3.6951 16.344 3.89401 16.344H14.1068C14.3057 16.344 14.4964 16.265 14.6371 16.1243C14.7777 15.9837 14.8568 15.7929 14.8568 15.594V14.6565H3.14401V15.594ZM14.9715 7.08448L12.084 8.57698L9.65851 4.84573C9.58723 4.736 9.48965 4.64582 9.37465 4.58339C9.25965 4.52096 9.13087 4.48826 9.00001 4.48826C8.86916 4.48826 8.74038 4.52096 8.62538 4.58339C8.51038 4.64582 8.4128 4.736 8.34151 4.84573L5.91601 8.57698L3.02851 7.08448C2.89693 7.01658 2.74885 6.98723 2.60132 6.99981C2.45378 7.01238 2.3128 7.06638 2.19461 7.15557C2.07642 7.24476 1.98583 7.36552 1.93327 7.50394C1.88071 7.64237 1.86831 7.79282 1.89751 7.93798L3.03001 13.5315H14.97L16.1025 7.93798C16.2338 7.29148 15.5573 6.78148 14.9715 7.08448ZM9.00001 3.85573C9.31231 3.85573 9.61181 3.73167 9.83263 3.51085C10.0535 3.29003 10.1775 2.99053 10.1775 2.67823C10.1775 2.36594 10.0535 2.06644 9.83263 1.84561C9.61181 1.62479 9.31231 1.50073 9.00001 1.50073C8.68772 1.50073 8.38822 1.62479 8.16739 1.84561C7.94657 2.06644 7.82251 2.36594 7.82251 2.67823C7.82251 2.99053 7.94657 3.29003 8.16739 3.51085C8.38822 3.73167 8.68772 3.85573 9.00001 3.85573ZM16.8225 4.48873C16.5102 4.48873 16.2107 4.61279 15.9899 4.83361C15.7691 5.05444 15.645 5.35394 15.645 5.66623C15.645 5.97852 15.7691 6.27803 15.9899 6.49885C16.2107 6.71967 16.5102 6.84373 16.8225 6.84373C17.1348 6.84373 17.4343 6.71967 17.6551 6.49885C17.876 6.27803 18 5.97852 18 5.66623C18 5.35394 17.876 5.05444 17.6551 4.83361C17.4343 4.61279 17.1348 4.48873 16.8225 4.48873ZM2.35576 5.66623C2.35576 5.35394 2.23171 5.05444 2.01088 4.83361C1.79006 4.61279 1.49056 4.48873 1.17826 4.48873C0.86597 4.48873 0.566469 4.61279 0.345645 4.83361C0.124821 5.05444 0.000762939 5.35394 0.000762939 5.66623C0.000762939 5.97852 0.124821 6.27803 0.345645 6.49885C0.566469 6.71967 0.86597 6.84373 1.17826 6.84373C1.49056 6.84373 1.79006 6.71967 2.01088 6.49885C2.23171 6.27803 2.35576 5.97852 2.35576 5.66623Z" fill="#FCCA34"/>
</g>
<defs>
<clipPath id="clip0_919_76410">
<rect width="18" height="18" fill="white"/>
</clipPath>
</defs>
</svg>
