<svg width="26" height="26" viewBox="0 0 26 26" fill="none" xmlns="http://www.w3.org/2000/svg">
<path d="M5.8801 15.899L6.52309 16.2631L5.8801 15.899C5.76109 16.1092 5.70403 16.3394 5.65097 16.5535C5.64664 16.5709 5.64234 16.5883 5.63803 16.6055L4.89116 19.593C4.88855 19.6034 4.88587 19.6141 4.88315 19.625C4.84532 19.7757 4.79895 19.9606 4.7833 20.1205C4.76563 20.3012 4.76405 20.6578 5.05314 20.9468C5.34224 21.2359 5.69874 21.2344 5.87946 21.2167C6.03941 21.201 6.22426 21.1547 6.37506 21.1168C6.38589 21.1141 6.39655 21.1114 6.40701 21.1088L9.39446 20.362C9.4117 20.3577 9.42907 20.3534 9.44654 20.349C9.6606 20.296 9.89076 20.2389 10.101 20.1199C10.3112 20.0009 10.4785 19.8329 10.6341 19.6766C10.6468 19.6639 10.6595 19.6512 10.672 19.6386L18.6161 11.6945L18.6478 11.6629C18.9538 11.3569 19.2345 11.0763 19.432 10.8174C19.6496 10.5322 19.8358 10.187 19.8358 9.75C19.8358 9.31298 19.6496 8.96778 19.432 8.68263C19.2345 8.42368 18.9538 8.14311 18.6478 7.8371L18.6161 7.80546L18.1945 7.38388L18.1629 7.35223C17.8569 7.04615 17.5763 6.76552 17.3174 6.56795C17.0322 6.35038 16.687 6.16421 16.25 6.16421C15.813 6.16421 15.4678 6.35038 15.1826 6.56795C14.9237 6.76552 14.6431 7.04617 14.3371 7.35225C14.3266 7.36277 14.316 7.37331 14.3054 7.38388L6.36137 15.328C6.34881 15.3405 6.33614 15.3531 6.32339 15.3658C6.16713 15.5215 5.99912 15.6888 5.8801 15.899Z" stroke="#1C201F" stroke-width="1.5"/>
<path d="M16.2232 10.8064L15.1935 9.77674C14.8679 9.45113 14.7051 9.28832 14.6101 9.13023C14.2693 8.56254 14.341 7.8385 14.7865 7.34868C14.9106 7.21227 15.1022 7.08456 15.4853 6.82913L15.4853 6.82913C15.7534 6.65043 15.8874 6.56108 16.0192 6.50568C16.4867 6.30913 17.0219 6.36212 17.4418 6.64654C17.5601 6.7267 17.674 6.8406 17.9018 7.0684L17.9018 7.0684L18.9315 8.0981C19.1593 8.3259 19.2732 8.4398 19.3534 8.55815C19.6378 8.97804 19.6908 9.5132 19.4942 9.98071C19.4388 10.1125 19.3495 10.2465 19.1708 10.5145L19.1708 10.5146C18.9154 10.8977 18.7876 11.0893 18.6512 11.2134C18.1614 11.659 17.4374 11.7306 16.8697 11.3898C16.7116 11.2948 16.5488 11.132 16.2232 10.8064Z" stroke="#1C201F" stroke-width="1.5"/>
</svg>
