<svg width="18" height="18" viewBox="0 0 18 18" fill="none" xmlns="http://www.w3.org/2000/svg">
<path fill-rule="evenodd" clip-rule="evenodd" d="M14.8012 2.85891V1.28091C14.8007 1.21226 14.7818 1.145 14.7465 1.08611C14.7112 1.02723 14.6608 0.978861 14.6005 0.946032C14.5402 0.913204 14.4722 0.897109 14.4036 0.899418C14.3349 0.901726 14.2682 0.922354 14.2102 0.95916C11.0625 2.92566 10.2525 7.62816 10.05 9.53241C10.0393 9.63661 10.0506 9.74191 10.0832 9.84146C10.1158 9.94101 10.169 10.0326 10.2393 10.1102C10.3096 10.1879 10.3954 10.2499 10.4913 10.2922C10.5871 10.3346 10.6907 10.3563 10.7955 10.3559L12.7305 10.3589L12.522 16.4084C12.5164 16.5615 12.5418 16.7141 12.5965 16.8572C12.6513 17.0003 12.7343 17.1308 12.8406 17.2411C12.947 17.3514 13.0745 17.4391 13.2154 17.499C13.3564 17.5589 13.508 17.5898 13.6612 17.5898C13.8144 17.5898 13.966 17.5589 14.107 17.499C14.248 17.4391 14.3755 17.3514 14.4818 17.2411C14.5882 17.1308 14.6712 17.0003 14.7259 16.8572C14.7807 16.7141 14.806 16.5615 14.8005 16.4084V2.85891H14.8012ZM8.54098 0.76416C8.34207 0.76416 8.15131 0.843178 8.01065 0.98383C7.87 1.12448 7.79098 1.31525 7.79098 1.51416V4.63641C7.79098 4.68291 7.78123 4.72641 7.77974 4.77216H6.44398V1.51416C6.44398 1.31525 6.36497 1.12448 6.22431 0.98383C6.08366 0.843178 5.8929 0.76416 5.69398 0.76416C5.49507 0.76416 5.30431 0.843178 5.16365 0.98383C5.023 1.12448 4.94398 1.31525 4.94398 1.51416V4.77216H3.60823C3.60673 4.72641 3.59698 4.68291 3.59698 4.63641V1.51416C3.59698 1.31525 3.51797 1.12448 3.37731 0.98383C3.23666 0.843178 3.0459 0.76416 2.84698 0.76416C2.64807 0.76416 2.45731 0.843178 2.31665 0.98383C2.176 1.12448 2.09698 1.31525 2.09698 1.51416V4.63641C2.09698 6.56466 3.27973 8.18166 4.86373 8.60916L4.55473 16.4099C4.55083 16.562 4.57742 16.7134 4.63294 16.8551C4.68846 16.9967 4.77178 17.1259 4.87799 17.2348C4.9842 17.3438 5.11115 17.4304 5.25136 17.4896C5.39156 17.5487 5.54219 17.5791 5.69436 17.5791C5.84653 17.5791 5.99716 17.5487 6.13736 17.4896C6.27757 17.4304 6.40452 17.3438 6.51073 17.2348C6.61694 17.1259 6.70026 16.9967 6.75578 16.8551C6.8113 16.7134 6.83789 16.562 6.83399 16.4099L6.52498 8.60916C8.10823 8.18166 9.29098 6.56466 9.29098 4.63641V1.51416C9.29098 1.31525 9.21197 1.12448 9.07131 0.98383C8.93066 0.843178 8.7399 0.76416 8.54098 0.76416Z" fill="#FF9330"/>
</svg>
