<svg width="24" height="24" viewBox="0 0 24 24" fill="none" xmlns="http://www.w3.org/2000/svg">
<path d="M4.11167 7.86167C3.76004 8.21331 3.5625 8.69022 3.5625 9.1875V17.625C3.5625 18.1223 3.76004 18.5992 4.11167 18.9508C4.46331 19.3025 4.94022 19.5 5.4375 19.5H18.5625C19.0598 19.5 19.5367 19.3025 19.8883 18.9508C20.24 18.5992 20.4375 18.1223 20.4375 17.625V9.1875C20.4375 8.69022 20.24 8.21331 19.8883 7.86167C19.5367 7.51004 19.0598 7.3125 18.5625 7.3125H17.6906C17.382 7.31255 17.0782 7.23642 16.806 7.09087C16.5339 6.94531 16.3019 6.73484 16.1306 6.47813L15.3694 5.33437C15.1981 5.07766 14.9661 4.86719 14.694 4.72163C14.4218 4.57608 14.118 4.49995 13.8094 4.5H10.1906C9.88201 4.49995 9.57816 4.57608 9.30603 4.72163C9.0339 4.86719 8.8019 5.07766 8.63063 5.33437L7.86937 6.47813C7.6981 6.73484 7.4661 6.94531 7.19397 7.09087C6.92184 7.23642 6.61799 7.31255 6.30937 7.3125H5.4375C4.94022 7.3125 4.46331 7.51004 4.11167 7.86167Z" fill="#9A9A9A"/>
<path d="M13.9887 14.9262C14.5162 14.3988 14.8125 13.6834 14.8125 12.9375C14.8125 12.1916 14.5162 11.4762 13.9887 10.9488C13.4613 10.4213 12.7459 10.125 12 10.125C11.2541 10.125 10.5387 10.4213 10.0113 10.9488C9.48382 11.4762 9.1875 12.1916 9.1875 12.9375C9.1875 13.6834 9.48382 14.3988 10.0113 14.9262C10.5387 15.4537 11.2541 15.75 12 15.75C12.7459 15.75 13.4613 15.4537 13.9887 14.9262Z" fill="white"/>
</svg>
