<svg width="56" height="56" viewBox="0 0 56 56" fill="none" xmlns="http://www.w3.org/2000/svg">
<g filter="url(#filter0_d_887_38551)">
<rect x="3" y="3" width="50" height="50" rx="10" fill="#FCFCFC"/>
</g>
<path fill-rule="evenodd" clip-rule="evenodd" d="M29.2146 22.8379V18.9708C33.2739 19.5117 36.4882 22.7259 37.029 26.7853H33.0185C32.3478 26.7853 31.804 27.3291 31.804 27.9999C31.804 28.6707 32.3478 29.2145 33.0185 29.2145H37.029C36.4882 33.2738 33.2739 36.4881 29.2146 37.0289V33.0184C29.2146 32.3476 28.6708 31.8039 28 31.8039C27.3292 31.8039 26.7854 32.3476 26.7854 33.0184V37.0289C22.726 36.4881 19.5118 33.2738 18.9709 29.2145H22.8381C23.5088 29.2145 24.0526 28.6707 24.0526 27.9999C24.0526 27.3291 23.5088 26.7853 22.8381 26.7853H18.9709C19.5118 22.7259 22.726 19.5117 26.7854 18.9708V22.8379C26.7854 23.5087 27.3292 24.0525 28 24.0525C28.6708 24.0525 29.2146 23.5087 29.2146 22.8379ZM16.4615 27.9999C16.4615 21.6274 21.6275 16.4614 28 16.4614C34.3725 16.4614 39.5385 21.6274 39.5385 27.9999C39.5385 34.3724 34.3725 39.5383 28 39.5383C21.6275 39.5383 16.4615 34.3724 16.4615 27.9999Z" fill="#37DCA5"/>
<defs>
<filter id="filter0_d_887_38551" x="0" y="0" width="56" height="56" filterUnits="userSpaceOnUse" color-interpolation-filters="sRGB">
<feFlood flood-opacity="0" result="BackgroundImageFix"/>
<feColorMatrix in="SourceAlpha" type="matrix" values="0 0 0 0 0 0 0 0 0 0 0 0 0 0 0 0 0 0 127 0" result="hardAlpha"/>
<feOffset/>
<feGaussianBlur stdDeviation="1.5"/>
<feComposite in2="hardAlpha" operator="out"/>
<feColorMatrix type="matrix" values="0 0 0 0 0 0 0 0 0 0 0 0 0 0 0 0 0 0 0.5 0"/>
<feBlend mode="normal" in2="BackgroundImageFix" result="effect1_dropShadow_887_38551"/>
<feBlend mode="normal" in="SourceGraphic" in2="effect1_dropShadow_887_38551" result="shape"/>
</filter>
</defs>
</svg>
