<svg width="36" height="36" viewBox="0 0 36 36" fill="none" xmlns="http://www.w3.org/2000/svg">
<path d="M27 30H9C8.20435 30 7.44129 29.6839 6.87868 29.1213C6.31607 28.5587 6 27.7956 6 27V24V9C6 8.20435 6.31607 7.44129 6.87868 6.87868C7.44129 6.31607 8.20435 6 9 6H27C27.7956 6 28.5587 6.31607 29.1213 6.87868C29.6839 7.44129 30 8.20435 30 9V21V27C30 27.7956 29.6839 28.5587 29.1213 29.1213C28.5587 29.6839 27.7956 30 27 30Z" fill="white"/>
<path d="M6 24L12.879 17.121C13.4416 16.5586 14.2045 16.2426 15 16.2426C15.7955 16.2426 16.5584 16.5586 17.121 17.121L24 24M21 21L23.379 18.621C23.9416 18.0586 24.7045 17.7426 25.5 17.7426C26.2955 17.7426 27.0584 18.0586 27.621 18.621L30 21M21 12H21.015M9 30H27C27.7956 30 28.5587 29.6839 29.1213 29.1213C29.6839 28.5587 30 27.7956 30 27V9C30 8.20435 29.6839 7.44129 29.1213 6.87868C28.5587 6.31607 27.7956 6 27 6H9C8.20435 6 7.44129 6.31607 6.87868 6.87868C6.31607 7.44129 6 8.20435 6 9V27C6 27.7956 6.31607 28.5587 6.87868 29.1213C7.44129 29.6839 8.20435 30 9 30Z" stroke="#FF9330" stroke-width="2" stroke-linecap="round" stroke-linejoin="round"/>
<circle cx="20.5714" cy="12.3428" r="2.05714" fill="#FF9330"/>
</svg>
