<svg width="24" height="24" viewBox="0 0 24 24" fill="none" xmlns="http://www.w3.org/2000/svg">
<path d="M12.398 19.804L12.6973 20.381L12.398 19.804ZM11.602 19.804L11.3027 20.381L11.602 19.804ZM18.35 11C18.35 13.2726 17.1922 15.1262 15.7935 16.537C14.3954 17.9472 12.8111 18.8575 12.0988 19.227L12.6973 20.381C13.468 19.9813 15.1846 18.9977 16.7167 17.4523C18.2483 15.9075 19.65 13.7437 19.65 11H18.35ZM12 4.65C15.507 4.65 18.35 7.49299 18.35 11H19.65C19.65 6.77502 16.225 3.35 12 3.35V4.65ZM5.65 11C5.65 7.49299 8.49299 4.65 12 4.65V3.35C7.77502 3.35 4.35 6.77502 4.35 11H5.65ZM11.9012 19.227C11.1889 18.8575 9.60457 17.9472 8.20648 16.537C6.80779 15.1262 5.65 13.2726 5.65 11H4.35C4.35 13.7437 5.75173 15.9075 7.28329 17.4523C8.81545 18.9977 10.532 19.9813 11.3027 20.381L11.9012 19.227ZM12.0988 19.227C12.0335 19.2608 11.9665 19.2608 11.9012 19.227L11.3027 20.381C11.7432 20.6095 12.2568 20.6095 12.6973 20.381L12.0988 19.227ZM14.35 11C14.35 12.2979 13.2979 13.35 12 13.35V14.65C14.0158 14.65 15.65 13.0158 15.65 11H14.35ZM12 8.65C13.2979 8.65 14.35 9.70213 14.35 11H15.65C15.65 8.98416 14.0158 7.35 12 7.35V8.65ZM9.65 11C9.65 9.70213 10.7021 8.65 12 8.65V7.35C9.98416 7.35 8.35 8.98416 8.35 11H9.65ZM12 13.35C10.7021 13.35 9.65 12.2979 9.65 11H8.35C8.35 13.0158 9.98416 14.65 12 14.65V13.35Z" fill="#1C201F"/>
</svg>
