<svg width="20" height="20" viewBox="0 0 20 20" fill="none" xmlns="http://www.w3.org/2000/svg">
<g clip-path="url(#clip0_919_76466)">
<path d="M15 13.4001C14.3667 13.4001 13.8 13.6501 13.3667 14.0417L7.425 10.5834C7.46667 10.3917 7.5 10.2001 7.5 10.0001C7.5 9.80008 7.46667 9.60842 7.425 9.41675L13.3 5.99175C13.75 6.40841 14.3417 6.66675 15 6.66675C16.3833 6.66675 17.5 5.55008 17.5 4.16675C17.5 2.78341 16.3833 1.66675 15 1.66675C13.6167 1.66675 12.5 2.78341 12.5 4.16675C12.5 4.36675 12.5333 4.55841 12.575 4.75008L6.7 8.17508C6.25 7.75842 5.65833 7.50008 5 7.50008C3.61667 7.50008 2.5 8.61675 2.5 10.0001C2.5 11.3834 3.61667 12.5001 5 12.5001C5.65833 12.5001 6.25 12.2417 6.7 11.8251L12.6333 15.2917C12.5917 15.4667 12.5667 15.6501 12.5667 15.8334C12.5667 17.1751 13.6583 18.2667 15 18.2667C16.3417 18.2667 17.4333 17.1751 17.4333 15.8334C17.4333 14.4917 16.3417 13.4001 15 13.4001Z" fill="#3390FF"/>
</g>
<defs>
<clipPath id="clip0_919_76466">
<rect width="20" height="20" fill="white"/>
</clipPath>
</defs>
</svg>
