<svg width="20" height="20" viewBox="0 0 20 20" fill="none" xmlns="http://www.w3.org/2000/svg">
<path fill-rule="evenodd" clip-rule="evenodd" d="M9.99999 15.4168C6.56582 15.4168 3.66416 14.496 1.98082 13.0452C1.78166 13.4027 1.66666 13.7777 1.66666 14.1668C1.66666 16.4685 5.39832 18.3335 9.99999 18.3335C14.6017 18.3335 18.3333 16.4685 18.3333 14.1668C18.3333 13.7777 18.2183 13.4027 18.0192 13.0452C16.3367 14.496 13.4342 15.4168 9.99999 15.4168Z" fill="#FCCA34"/>
<path fill-rule="evenodd" clip-rule="evenodd" d="M9.99999 11.2501C6.56582 11.2501 3.66416 10.3293 1.98082 8.87842C1.78166 9.23592 1.66666 9.61092 1.66666 10.0001C1.66666 12.3018 5.39832 14.1668 9.99999 14.1668C14.6017 14.1668 18.3333 12.3018 18.3333 10.0001C18.3333 9.61092 18.2183 9.23592 18.0192 8.87842C16.3367 10.3293 13.4342 11.2501 9.99999 11.2501Z" fill="#FCCA34"/>
<path fill-rule="evenodd" clip-rule="evenodd" d="M9.99999 10.0001C14.6017 10.0001 18.3333 8.13508 18.3333 5.83341C18.3333 3.53258 14.6017 1.66675 9.99999 1.66675C5.39832 1.66675 1.66666 3.53258 1.66666 5.83341C1.66666 8.13508 5.39832 10.0001 9.99999 10.0001Z" fill="#FCCA34"/>
</svg>
