<svg width="14" height="14" viewBox="0 0 14 14" fill="none" xmlns="http://www.w3.org/2000/svg">
<path fill-rule="evenodd" clip-rule="evenodd" d="M7.75072 0.467628L9.26551 3.54276C9.38723 3.78994 9.62288 3.96147 9.89563 4.00126L13.2826 4.49432C13.9687 4.59411 14.2434 5.44001 13.7461 5.9246L11.2952 8.31818C11.1981 8.4131 11.1254 8.53024 11.0834 8.65953C11.0415 8.78881 11.0315 8.92637 11.0543 9.06038L11.633 12.4401C11.7502 13.1256 11.0329 13.6473 10.419 13.3245L7.38944 11.7285C7.26941 11.6652 7.13581 11.6322 7.00017 11.6322C6.86453 11.6322 6.73092 11.6652 6.61089 11.7285L3.58133 13.3245C2.96682 13.6473 2.24946 13.1256 2.36664 12.4401L2.94534 9.06038C2.96813 8.92637 2.95812 8.78883 2.91616 8.65955C2.87421 8.53028 2.80157 8.41313 2.70448 8.31818L0.253622 5.9246C-0.24306 5.44001 0.0309942 4.59411 0.717756 4.49432L4.10405 4.00126C4.3768 3.96147 4.6131 3.78994 4.73483 3.54276L6.24896 0.467628C6.55621 -0.155876 7.44347 -0.155876 7.75072 0.467628Z" fill="current"/>
</svg>
