<svg width="18" height="18" viewBox="0 0 18 18" fill="none" xmlns="http://www.w3.org/2000/svg">
<path fill-rule="evenodd" clip-rule="evenodd" d="M5.625 8.73535C5.99434 8.73535 6.36007 8.6626 6.7013 8.52126C7.04253 8.37992 7.35257 8.17275 7.61374 7.91159C7.8749 7.65042 8.08207 7.34038 8.22341 6.99915C8.36475 6.65792 8.4375 6.29219 8.4375 5.92285C8.4375 5.55351 8.36475 5.18778 8.22341 4.84655C8.08207 4.50533 7.8749 4.19528 7.61374 3.93411C7.35257 3.67295 7.04253 3.46578 6.7013 3.32444C6.36007 3.1831 5.99434 3.11035 5.625 3.11035C4.87908 3.11035 4.16371 3.40667 3.63626 3.93411C3.10882 4.46156 2.8125 5.17693 2.8125 5.92285C2.8125 6.66877 3.10882 7.38414 3.63626 7.91159C4.16371 8.43904 4.87908 8.73535 5.625 8.73535ZM6 13.3711C6 12.4231 6.57825 11.0199 7.86 9.9571C7.22775 9.73435 6.489 9.59485 5.625 9.59485C1.845 9.59485 0.375 12.1734 0.375 13.3711C0.375 14.5711 3.50475 14.8891 5.625 14.8891C5.97825 14.8891 6.36 14.8794 6.75075 14.8591C6.255 14.4639 6 13.9689 6 13.3711Z" fill="#37DCA4"/>
<path fill-rule="evenodd" clip-rule="evenodd" d="M12.375 9.5956C8.595 9.5956 7.125 12.1734 7.125 13.3719C7.125 14.5704 10.2548 14.8899 12.375 14.8899C14.4952 14.8899 17.625 14.5704 17.625 13.3719C17.625 12.1734 16.155 9.5956 12.375 9.5956ZM12.375 8.73535C12.7443 8.73535 13.1101 8.6626 13.4513 8.52126C13.7925 8.37992 14.1026 8.17275 14.3637 7.91159C14.6249 7.65042 14.8321 7.34038 14.9734 6.99915C15.1148 6.65792 15.1875 6.29219 15.1875 5.92285C15.1875 5.55351 15.1148 5.18778 14.9734 4.84655C14.8321 4.50533 14.6249 4.19528 14.3637 3.93411C14.1026 3.67295 13.7925 3.46578 13.4513 3.32444C13.1101 3.1831 12.7443 3.11035 12.375 3.11035C11.6291 3.11035 10.9137 3.40667 10.3863 3.93411C9.85882 4.46156 9.5625 5.17693 9.5625 5.92285C9.5625 6.66877 9.85882 7.38414 10.3863 7.91159C10.9137 8.43904 11.6291 8.73535 12.375 8.73535Z" fill="#2BAE82"/>
</svg>
