<svg width="20" height="20" viewBox="0 0 20 20" fill="none" xmlns="http://www.w3.org/2000/svg">
<path fill-rule="evenodd" clip-rule="evenodd" d="M9.99334 14.9099C8.14168 14.9099 5.41001 14.6499 5.41001 13.6733C5.41001 12.6966 6.69334 10.5966 9.99334 10.5966C13.2933 10.5966 14.5767 12.6966 14.5767 13.6733C14.5767 14.6499 11.845 14.9099 9.99334 14.9099ZM9.99334 5.09659C10.6011 5.09659 11.184 5.33803 11.6138 5.7678C12.0436 6.19757 12.285 6.78046 12.285 7.38825C12.285 7.99604 12.0436 8.57893 11.6138 9.00871C11.184 9.43848 10.6011 9.67992 9.99334 9.67992C9.38556 9.67992 8.80266 9.43848 8.37289 9.00871C7.94312 8.57893 7.70168 7.99604 7.70168 7.38825C7.70168 6.78046 7.94312 6.19757 8.37289 5.7678C8.80266 5.33803 9.38556 5.09659 9.99334 5.09659ZM16.25 2.08325H3.75001C3.30798 2.08325 2.88406 2.25885 2.5715 2.57141C2.25894 2.88397 2.08334 3.30789 2.08334 3.74992V16.2499C2.08334 16.6919 2.25894 17.1159 2.5715 17.4284C2.88406 17.741 3.30798 17.9166 3.75001 17.9166H16.25C16.692 17.9166 17.116 17.741 17.4285 17.4284C17.7411 17.1159 17.9167 16.6919 17.9167 16.2499V3.74992C17.9167 3.30789 17.7411 2.88397 17.4285 2.57141C17.116 2.25885 16.692 2.08325 16.25 2.08325Z" fill="#3390FF"/>
</svg>
