<svg width="32" height="32" viewBox="0 0 32 32" fill="none" xmlns="http://www.w3.org/2000/svg">
<path d="M4.78105 10.1143C4.28095 10.6144 4 11.2927 4 11.9999V23.9999C4 24.7072 4.28095 25.3854 4.78105 25.8855C5.28115 26.3856 5.95942 26.6666 6.66667 26.6666H25.3333C26.0406 26.6666 26.7189 26.3856 27.219 25.8855C27.719 25.3854 28 24.7072 28 23.9999V11.9999C28 11.2927 27.719 10.6144 27.219 10.1143C26.7189 9.6142 26.0406 9.33325 25.3333 9.33325H24.0933C23.6544 9.33332 23.2223 9.22504 22.8352 9.01804C22.4482 8.81103 22.1183 8.5117 21.8747 8.14659L20.792 6.51992C20.5484 6.15481 20.2185 5.85547 19.8314 5.64847C19.4444 5.44146 19.0122 5.33319 18.5733 5.33325H13.4267C12.9878 5.33319 12.5556 5.44146 12.1686 5.64847C11.7815 5.85547 11.4516 6.15481 11.208 6.51992L10.1253 8.14659C9.88174 8.5117 9.55179 8.81103 9.16475 9.01804C8.77772 9.22504 8.34558 9.33332 7.90667 9.33325H6.66667C5.95942 9.33325 5.28115 9.6142 4.78105 10.1143Z" fill="white"/>
<path d="M18.8284 20.1617C19.5786 19.4115 20 18.3941 20 17.3333C20 16.2724 19.5786 15.255 18.8284 14.5048C18.0783 13.7547 17.0609 13.3333 16 13.3333C14.9391 13.3333 13.9217 13.7547 13.1716 14.5048C12.4214 15.255 12 16.2724 12 17.3333C12 18.3941 12.4214 19.4115 13.1716 20.1617C13.9217 20.9118 14.9391 21.3333 16 21.3333C17.0609 21.3333 18.0783 20.9118 18.8284 20.1617Z" fill="#FCCA34"/>
</svg>
