<svg width="32" height="32" viewBox="0 0 32 32" fill="none" xmlns="http://www.w3.org/2000/svg">
<path fill-rule="evenodd" clip-rule="evenodd" d="M16.4025 26.471C18.1914 25.5628 25.3333 21.5084 25.3333 14.6666C25.3333 9.51193 21.1546 5.33325 16 5.33325C10.8453 5.33325 6.66666 9.51193 6.66666 14.6666C6.66666 21.5084 13.8086 25.5628 15.5975 26.471C15.8515 26.6 16.1485 26.6 16.4025 26.471ZM16 18.6666C18.2091 18.6666 20 16.8757 20 14.6666C20 12.4574 18.2091 10.6666 16 10.6666C13.7909 10.6666 12 12.4574 12 14.6666C12 16.8757 13.7909 18.6666 16 18.6666Z" fill="white"/>
</svg>
