<svg width="24" height="24" viewBox="0 0 24 24" fill="none" xmlns="http://www.w3.org/2000/svg">
<path fill-rule="evenodd" clip-rule="evenodd" d="M13.815 12.0001L19.466 6.34912C19.5775 6.23769 19.6659 6.1054 19.7263 5.95978C19.7867 5.81417 19.8178 5.6581 19.8178 5.50047C19.8179 5.34284 19.7869 5.18675 19.7266 5.0411C19.6663 4.89546 19.5779 4.76311 19.4665 4.65162C19.3551 4.54013 19.2228 4.45167 19.0772 4.39131C18.9316 4.33094 18.7755 4.29985 18.6179 4.2998C18.4602 4.29976 18.3041 4.33076 18.1585 4.39104C18.0128 4.45132 17.8805 4.53969 17.769 4.65112L12.118 10.3031L6.466 4.65112C6.23836 4.43849 5.93701 4.32263 5.62556 4.32799C5.31411 4.33335 5.01692 4.4595 4.79673 4.67983C4.57653 4.90015 4.45055 5.19741 4.44538 5.50887C4.4402 5.82032 4.55624 6.1216 4.769 6.34912L10.421 12.0001L4.769 17.6511C4.60196 17.8193 4.48838 18.0331 4.44255 18.2657C4.39672 18.4983 4.42068 18.7392 4.51142 18.9582C4.60216 19.1772 4.75563 19.3645 4.95252 19.4965C5.14942 19.6285 5.38095 19.6994 5.618 19.7001C5.925 19.7001 6.232 19.5831 6.466 19.3491L12.118 13.6971L17.769 19.3491C17.8803 19.4608 18.0125 19.5494 18.1581 19.6098C18.3037 19.6703 18.4598 19.7014 18.6175 19.7014C18.7752 19.7014 18.9313 19.6703 19.0769 19.6098C19.2225 19.5494 19.3547 19.4608 19.466 19.3491C19.5776 19.2377 19.6661 19.1053 19.7265 18.9596C19.7869 18.814 19.8179 18.6578 19.8179 18.5001C19.8179 18.3424 19.7869 18.1863 19.7265 18.0406C19.6661 17.8949 19.5776 17.7626 19.466 17.6511L13.815 12.0001Z" fill="#1C201F"/>
</svg>
